Title                            : Choi-jong-byeong-gi Hwal
Also Known As                    : War of the Arrows
Year                             : 2011
Genre                            : Action | History
iMDB URL                         : http://www.imdb.com/title/tt2025526/

Complete name                    : War.of.the.Arrows.2011.BRRIP.720P.H264-ZEKTORM.mp4
Format                           : MPEG-4
Format profile                   : Base Media
Codec ID                         : isom
File size                        : 3.48 GiB
Duration                         : 2h 2mn
Overall bit rate                 : 4080 Kbps
Subtitles                        : English (Format: srt)

Video
ID                               : 1
Format                           : AVC
Format/Info                      : Advanced Video Codec
Format profile                   : High@L4.0
Format settings, CABAC           : Yes
Format settings, ReFrames        : 12 frames
Codec ID                         : avc1
Codec ID/Info                    : Advanced Video Coding
Duration                         : 2h 2mn
Bit rate mode                    : Variable
Bit rate                         : 3631 Kbps
Width                            : 1280 pixels
Height                           : 544 pixels
Display aspect ratio             : 2.35
Frame rate mode                  : Constant
Frame rate                       : 23.976 fps
Resolution                       : 24 bits
Colorimetry                      : 4:2:0
Scan type                        : Progressive
Bits/(Pixel*Frame)               : 0.217
Stream size                      : 3.10 GiB (89%)
Title                            : Video
Writing library                  : x264

Audio
ID                               : 2
Format                           : AAC
Format/Info                      : Advanced Audio Codec
Format version                   : Version 4
Format profile                   : LC
Format settings, SBR             : No
Codec ID                         : 40
Duration                         : 2h 2mn
Bit rate mode                    : Variable
Bit rate                         : 445 Kbps
Maximum bit rate                 : 720 Kbps
Channel(s)                       : 6 channels
Channel positions                : Front: L C R, Rear: L R, LFE
Sampling rate                    : 48.0 KHz
Resolution                       : 16 bits
Stream size                      : 389 MiB (11%)
Language                         : Korean


Screenshots:

[img]http://img685.imageshack.us/img685/9776/snapwota1.png[/img]

[img]http://img198.imageshack.us/img198/4821/snapwota2.png[/img]
